<svg width="20" height="20" viewBox="0 0 20 20" fill="none" xmlns="http://www.w3.org/2000/svg">
<path d="M2.22415 19.4474C4.03847 17.6508 5.84217 15.8442 7.64513 14.0354L9.39019 12.2883C9.49537 12.1834 9.6042 12.081 9.731 11.9621L10.0007 11.7074L10.2704 11.9621C10.3972 12.0806 10.5061 12.1838 10.6112 12.288L12.3556 14.0354C14.1593 15.8438 15.9629 17.6511 17.7765 19.4467C18.0243 19.6925 18.342 19.887 18.6267 19.9663C19.0771 20.0933 19.5835 19.8514 19.8254 19.4111C20.0775 18.9524 20.0489 18.5205 19.7382 18.0915C19.6653 17.9887 19.57 17.8959 19.4707 17.7979L17.9517 16.2739L12.2672 10.5658C12.1716 10.4711 12.0811 10.3724 11.9818 10.2645L11.7264 9.99043L12.0243 9.67337C12.1188 9.57209 12.2075 9.47594 12.2999 9.38347L14.7635 6.92519C16.3591 5.33331 17.955 3.74069 19.5465 2.14478C19.9273 1.76314 20.0812 1.27104 19.9588 0.828851C19.8499 0.4351 19.5385 0.147035 19.102 0.0384142C18.6425 -0.0768119 18.2727 0.0641016 17.7934 0.544822C15.8197 2.51981 13.8441 4.4915 11.8678 6.46209L10.6241 7.70168C10.5291 7.79636 10.4331 7.88663 10.3302 7.98278L10.0143 8.28222L9.99118 8.26057L9.84094 8.14534L9.66907 7.98278C9.56683 7.88737 9.47008 7.79636 9.37554 7.70242L8.13142 6.46209C6.15695 4.4915 4.18102 2.52055 2.20839 0.544088C1.7276 0.0633676 1.35675 -0.0768119 0.898677 0.0376803C0.463327 0.146301 0.150374 0.434733 0.04117 0.828484C-0.0812263 1.27067 0.0730516 1.76277 0.453799 2.14404C2.04532 3.74069 3.64123 5.33221 5.23678 6.92482L7.7001 9.38237C7.79245 9.47521 7.88186 9.57172 7.97567 9.67264L8.2736 9.98969L8.01818 10.2638C7.91887 10.3713 7.82726 10.4704 7.73271 10.5647L0.529656 17.7975C0.429613 17.8963 0.335068 17.9887 0.262143 18.0907C-0.0493446 18.5208 -0.0775617 18.9527 0.174193 19.4114C0.416054 19.8514 0.925794 20.0925 1.37324 19.9667C1.65871 19.887 1.97642 19.6925 2.22415 19.4474Z" fill="#1D4076"/>
</svg>
