<svg width="16" height="17" viewBox="0 0 16 17" fill="none" xmlns="http://www.w3.org/2000/svg">
<path d="M2.90872 14.9685L2.90859 14.9686C2.68623 15.1886 2.39215 15.3753 2.09652 15.458M2.90872 14.9685L1.96127 14.9767M2.90872 14.9685C4.17987 13.7097 5.44331 12.4443 6.70535 11.1782L2.90872 14.9685ZM2.09652 15.458C2.09621 15.4581 2.09591 15.4582 2.09561 15.4583L1.96127 14.9767M2.09652 15.458C2.09657 15.458 2.09662 15.458 2.09666 15.458L1.96127 14.9767M2.09652 15.458C1.52826 15.6178 0.948637 15.3107 0.683772 14.8289L0.683613 14.8286C0.558985 14.6015 0.488319 14.3514 0.505961 14.0852C0.523537 13.82 0.625935 13.5813 0.777643 13.3715M1.96127 14.9767C1.64806 15.0648 1.29124 14.896 1.12194 14.588C0.945707 14.2669 0.965459 13.9646 1.1835 13.6635M0.777643 13.3715C0.777342 13.3719 0.777042 13.3723 0.776741 13.3728L1.1835 13.6635M0.777643 13.3715C0.777946 13.3711 0.778248 13.3707 0.778551 13.3702L1.1835 13.6635M0.777643 13.3715C0.853193 13.2661 0.945198 13.1756 1.00697 13.1148C1.01078 13.111 1.01448 13.1074 1.01806 13.1039M1.1835 13.6635C1.23323 13.594 1.29733 13.5307 1.36535 13.4636L1.37076 13.4583M1.37076 13.4583L1.01648 13.1055L1.01806 13.1039M1.37076 13.4583L1.01958 13.1024C1.01907 13.1029 1.01857 13.1034 1.01806 13.1039M1.37076 13.4583L1.50783 0.541299C1.04946 0.65573 0.677118 0.977175 0.547006 1.44631L0.546938 1.44656C0.404094 1.96262 0.596437 2.48601 0.963537 2.85381C1.92948 3.82287 2.89774 4.78923 3.86561 5.7552C4.01459 5.90389 4.16356 6.05257 4.31252 6.20126L4.31261 6.20134L6.03557 7.92027C6.03579 7.92048 6.036 7.9207 6.03621 7.92091C6.0596 7.94443 6.08282 7.96847 6.10667 7.99358C6.0909 8.00994 6.07536 8.02577 6.05979 8.04131L6.05862 8.04248L1.01806 13.1039M8.0005 9.88314C8.02615 9.90783 8.0508 9.93187 8.075 9.95584C8.07531 9.95614 8.07561 9.95644 8.07592 9.95675L9.29488 11.1779C10.5572 12.4436 11.8207 13.7096 13.0914 14.9676C13.3139 15.1884 13.6083 15.3754 13.9038 15.4579C14.475 15.6185 15.0517 15.3096 15.3159 14.8286L8.0005 9.88314ZM8.0005 9.88314C7.97504 9.90765 7.9507 9.93144 7.92679 9.95529C7.92663 9.95545 7.92647 9.95561 7.92631 9.95577L6.70571 11.1778L8.0005 9.88314ZM9.94136 8.04325L9.94135 8.04326L13.9203 12.0388L13.9205 12.0389L14.982 13.104C14.9859 13.1078 14.9899 13.1118 14.9941 13.1159C15.0549 13.1757 15.1474 13.2666 15.2229 13.3725C15.3742 13.5819 15.4764 13.8203 15.4939 14.0851C15.5115 14.3511 15.4409 14.6013 15.316 14.8285L9.94136 8.04325ZM9.94136 8.04325L9.93882 8.04073M9.94136 8.04325L9.93882 8.04073M9.93882 8.04073C9.92356 8.02563 9.90845 8.01028 9.89313 7.99441M9.93882 8.04073L9.89313 7.99441M9.89313 7.99441C9.91696 7.96932 9.94 7.94547 9.96345 7.92199C9.96353 7.9219 9.96361 7.92182 9.96369 7.92174L11.6876 6.20159C12.8044 5.08734 13.922 3.97211 15.0365 2.85448C15.4038 2.48631 15.5959 1.96281 15.453 1.44681C15.3234 0.978011 14.9524 0.656523 14.493 0.541904C14.4927 0.541833 14.4924 0.541761 14.4922 0.54169L14.3714 1.02689M9.89313 7.99441L13.4554 1.38138M14.3714 1.02689C14.0497 0.946232 13.7909 1.04487 13.4554 1.38138M14.3714 1.02689C14.6769 1.10292 14.895 1.30457 14.9711 1.5802C15.0568 1.88973 14.9491 2.23419 14.6826 2.50134L14.3714 1.02689ZM13.4554 1.38138L13.1017 1.02793M13.4554 1.38138L13.1013 1.02834C13.1014 1.0282 13.1016 1.02807 13.1017 1.02793M13.1017 1.02793C11.7204 2.41011 10.3378 3.79003 8.9545 5.16932C8.95447 5.16934 8.95444 5.16937 8.95442 5.1694L8.08387 6.03703L8.08372 6.03718C8.05635 6.06448 8.02861 6.09144 7.9997 6.11906C7.97072 6.0914 7.94282 6.06436 7.91546 6.03718C7.91541 6.03712 7.91535 6.03706 7.91529 6.03701L7.0452 5.16956C6.89217 5.01684 6.73914 4.86412 6.58611 4.7114C5.35679 3.48457 4.12736 2.25763 2.89977 1.02765L2.8994 1.02728C2.70756 0.835471 2.50055 0.672869 2.26105 0.580723C2.00635 0.482728 1.75512 0.479526 1.50803 0.541248L13.1017 1.02793Z" fill="#1D4076" stroke="#1D4076"/>
</svg>
