<svg width="20" height="20" viewBox="0 0 20 20" fill="none" xmlns="http://www.w3.org/2000/svg">
<path fill-rule="evenodd" clip-rule="evenodd" d="M19.0107 17.234C19.5432 17.7684 19.5172 18.655 18.9849 19.1895V19.1895C18.513 19.6632 17.7578 19.6358 17.2992 19.1493C16.6758 18.4878 16.0755 17.8263 15.4175 17.1648C14.8587 16.603 14.3415 16.0413 13.8164 15.4795C13.1801 14.7987 12.162 14.7004 11.3095 15.0768C6.98559 16.9858 3.35753 15.0129 1.55249 12.5576C-0.797508 9.48618 -0.445008 5.11528 2.37499 2.28009C5.19499 -0.43696 9.425 -0.791358 12.5975 1.5713C15.6529 3.79574 16.5354 7.34991 14.991 11.297C14.6644 12.1318 14.8117 13.0998 15.4569 13.7222C16.6415 14.8649 17.8261 16.0453 19.0107 17.234ZM14.125 7.95046C14.125 4.52461 11.4225 1.68943 8.015 1.68943C4.48999 1.68943 1.66999 4.40648 1.66999 7.95046C1.66999 11.4944 4.48999 14.2115 7.8975 14.2115C11.4225 14.2115 14.125 11.4944 14.125 7.95046Z" fill="#1D4076"/>
</svg>
