<svg width="15" height="18" viewBox="0 0 15 18" fill="none" xmlns="http://www.w3.org/2000/svg">
<path d="M0.00077629 16.0032C0.155258 15.4882 0.246084 14.94 0.475607 14.4676C1.23378 12.9114 2.45644 12.0817 4.10399 12.0036C4.4704 11.9857 4.6505 12.1379 4.67353 12.4431C4.6963 12.7622 4.52241 12.9579 4.14772 12.9822C2.78326 13.0691 1.79478 13.7665 1.22369 15.0886C1.06455 15.4561 0.995204 15.8798 0.949403 16.2875C0.890664 16.813 1.07775 17.0004 1.57121 17.0004C4.7465 17.0015 7.92204 17.0015 11.0973 17.0015C11.886 17.0015 12.6742 17.0031 13.4624 17.0004C13.9114 16.9976 14.0772 16.808 14.0615 16.3221C14.0079 14.6162 12.6737 13.1297 11.0847 13.0027C10.9962 12.9972 10.9077 12.9919 10.8197 12.9795C10.4745 12.9371 10.3053 12.7514 10.3283 12.4431C10.35 12.1484 10.5265 12.0012 10.8634 12.0001C12.7019 11.9901 14.424 13.4483 14.8644 15.3897C14.9107 15.5945 14.9552 15.7987 15 16.0032C15 16.2404 15 16.479 15 16.7156C14.8411 17.4011 14.4374 17.8256 13.8001 18C9.60012 18 5.40013 18 1.20014 18C0.562552 17.8256 0.159916 17.4011 0 16.7156C0.00077629 16.479 0.00077629 16.2413 0.00077629 16.0032Z" fill="white"/>
<path d="M7.89195 0C8.56553 0.16 9.21507 0.376045 9.77892 0.837966C11.0128 1.84979 11.6758 3.22591 11.9083 4.85514C12.1816 6.77363 11.8572 8.56497 10.7565 10.1264C8.99174 12.6298 6.013 12.6201 4.23715 10.124C2.4881 7.66764 2.60751 3.79962 4.50719 1.52919C5.17469 0.731299 5.98011 0.202486 6.97791 0.0554425C7.02296 0.0488135 7.06469 0.0186817 7.10864 0C7.36901 0 7.63076 0 7.89195 0ZM11.0177 6.06855C10.9915 4.92294 10.7737 3.90418 10.256 2.97341C9.01192 0.735216 6.64208 0.452279 5.14594 2.36806C3.56799 4.38599 3.61332 7.80113 5.24351 9.76542C6.46436 11.235 8.28803 11.3154 9.59567 9.93416C10.6081 8.86267 10.9707 7.49619 11.0177 6.06855Z" fill="white"/>
</svg>
